# xmcd
#
# Track frame offsets: 
#        150
#        16514
#        31878
#        45836
#        62870
#        79593
#        92775
#        106671
#        121100
#        135781
#        151060
#        166168
#        182644
#        199011
#
# Disc length: 2920 seconds
#
# Revision: 1
# Processed by: cddbd v1.5.2PL0 Copyright (c) Steve Scherf et al.
# Submitted via: ExactAudioCopy v1.1
#
DISCID=8f0b660e
DTITLE=Various Artist - CDX460
DYEAR=2008
DGENRE=Country
TTITLE0=Brooks and Dunn - Cowgirls Don't Cry
TTITLE1=Heidi Newfield - Cry, Cry (Til The Sun Shines)
TTITLE2=Kenny Chesney (with Mac McAnally) - Down The Road
TTITLE3=Ritchie McDonald - How Do I Just Stop
TTITLE4=Darius Rucker - It Won't Be Like This For Long
TTITLE5=Sammy Kershaw - Real People
TTITLE6=07 Ben Gregg - Gifts
TTITLE7=08 Donnie Vondra - If I Didn't Love You
TTITLE8=09 Brock Hawkins - Country Side
TTITLE9=10 Megan Morrison - Dancin' In The Rain
TTITLE10=11 Shawn Hammonds - Everthing
TTITLE11=12 Sarah Gayle Taylor - Well Built Bridges
TTITLE12=13 David Frizzell and T. Graham Brown - Got To Get To Louisana
TTITLE13=14 David Frizzell and Jimmy Fortune - Ordinary Joe
EXTD=
EXTT0=
EXTT1=
EXTT2=
EXTT3=
EXTT4=
EXTT5=
EXTT6=
EXTT7=
EXTT8=
EXTT9=
EXTT10=
EXTT11=
EXTT12=
EXTT13=
PLAYORDER=
